# xmcd CD database file
#
# Track frame offsets:
#	150
#	35283
#	79485
#	110749
#	146108
#	172104
#	189758
#	220511
#	250514
#	288603
#
# Disc length: 4137 seconds
#
# Revision: 2
# Processed by: cddbd v1.5.2PL0 Copyright (c) Steve Scherf et al.
# Submitted via: CDex 1.51
#
DISCID=8f10270a
DTITLE=Katharina Maschmeyer Quartett - Circle Of Elements
DYEAR=2011
DGENRE=Jazz
TTITLE0=Call Out
TTITLE1=Circle Of Elements
TTITLE2=Sleven
TTITLE3=Sankofa
TTITLE4=Mingo
TTITLE5=Ab Lues
TTITLE6=El Poldre
TTITLE7=Song For Emma
TTITLE8=Stepping Stone
TTITLE9=Hanging With M
EXTD=YEAR: 2011
EXTT0=
EXTT1=
EXTT2=
EXTT3=
EXTT4=
EXTT5=
EXTT6=
EXTT7=
EXTT8=
EXTT9=
PLAYORDER=
